<svg width="92" height="92" viewBox="0 0 92 92" fill="none" xmlns="http://www.w3.org/2000/svg">
<path d="M55.8571 64.4C53.7754 65.2692 51.5416 65.716 49.2857 65.7143C44.2764 65.4925 39.5598 63.2919 36.1716 59.5956C32.7834 55.8994 31.0005 51.0096 31.2143 46C31.0005 40.9903 32.7834 36.1006 36.1716 32.4043C39.5598 28.7081 44.2764 26.5075 49.2857 26.2857C51.1147 26.2971 52.9314 26.5852 54.6743 27.14M23 39.4286H42.7143M23 52.5714H42.7143" stroke="black" stroke-linecap="round" stroke-linejoin="round"/>
<path d="M45.9999 88.7143C69.5904 88.7143 88.7142 69.5905 88.7142 46C88.7142 22.4095 69.5904 3.28571 45.9999 3.28571C22.4095 3.28571 3.28564 22.4095 3.28564 46C3.28564 69.5905 22.4095 88.7143 45.9999 88.7143Z" stroke="black" stroke-linecap="round" stroke-linejoin="round"/>
</svg>
