<svg width="73" height="73" viewBox="0 0 73 73" fill="none" xmlns="http://www.w3.org/2000/svg">
<path d="M47.3925 39.2524C60.9569 39.2524 71.953 34.3652 71.953 28.3366C71.953 22.308 60.9569 17.4208 47.3925 17.4208C33.8281 17.4208 22.832 22.308 22.832 28.3366C22.832 34.3652 33.8281 39.2524 47.3925 39.2524Z" stroke="black" stroke-linecap="round" stroke-linejoin="round"/>
<path d="M22.832 28.3369V61.0842C22.832 67.0879 33.7478 71.9999 47.3925 71.9999C61.0372 71.9999 71.953 67.0879 71.953 61.0842V28.3369" stroke="black" stroke-linecap="round" stroke-linejoin="round"/>
<path d="M71.9524 44.7109C71.9524 50.7145 61.0366 55.6266 47.3919 55.6266C33.7472 55.6266 22.8315 50.7145 22.8315 44.7109M46.8461 6.50577C40.4686 2.56997 33.045 0.666482 25.5604 1.0479C11.9703 1.0479 1 5.95998 1 11.9636C1 15.1838 4.16557 18.0765 9.18681 20.1504" stroke="black" stroke-linecap="round" stroke-linejoin="round"/>
<path d="M9.18681 52.8979C4.16557 50.8239 1 47.9312 1 44.711V11.9638" stroke="black" stroke-linecap="round" stroke-linejoin="round"/>
<path d="M9.18681 36.5237C4.16557 34.4497 1 31.5571 1 28.3369" stroke="black" stroke-linecap="round" stroke-linejoin="round"/>
</svg>
