<svg width="71" height="71" viewBox="0 0 71 71" fill="none" xmlns="http://www.w3.org/2000/svg">
<path d="M65.469 27.8929H5.52477C2.68477 27.8929 1.46763 24.7993 3.69906 23.3286L33.6712 3.70214C34.2246 3.37661 34.8549 3.20496 35.4969 3.20496C36.1389 3.20496 36.7693 3.37661 37.3226 3.70214L67.2948 23.3286C69.5262 24.7993 68.309 27.8929 65.469 27.8929Z" stroke="black" stroke-linecap="round" stroke-linejoin="round"/>
<path d="M65.9285 55.7858H5.07136C3.67092 55.7858 2.53564 56.921 2.53564 58.3215V65.9286C2.53564 67.3291 3.67092 68.4643 5.07136 68.4643H65.9285C67.3289 68.4643 68.4642 67.3291 68.4642 65.9286V58.3215C68.4642 56.921 67.3289 55.7858 65.9285 55.7858Z" stroke="black" stroke-linecap="round" stroke-linejoin="round"/>
<path d="M10.1428 27.8929V55.7857M22.8214 27.8929V55.7857M35.5 27.8929V55.7857M48.1786 27.8929V55.7857M60.8571 27.8929V55.7857" stroke="black" stroke-linecap="round" stroke-linejoin="round"/>
</svg>
