<svg width="87" height="87" viewBox="0 0 87 87" fill="none" xmlns="http://www.w3.org/2000/svg">
<path d="M79.4612 40.2312H7.53843C3.92735 40.2312 1 43.1586 1 46.7696V79.4618C1 83.0729 3.92735 86.0002 7.53843 86.0002H79.4612C83.0722 86.0002 85.9996 83.0729 85.9996 79.4618V46.7696C85.9996 43.1586 83.0722 40.2312 79.4612 40.2312Z" stroke="black" stroke-linecap="round" stroke-linejoin="round"/>
<path d="M20.6145 10.8077V23.8845M43.499 1V23.8845M66.3835 10.8077V23.8845" stroke="black" stroke-linecap="round" stroke-linejoin="round"/>
<path d="M43.5012 72.9224C48.9179 72.9224 53.3089 68.5313 53.3089 63.1147C53.3089 57.6981 48.9179 53.3071 43.5012 53.3071C38.0846 53.3071 33.6936 57.6981 33.6936 63.1147C33.6936 68.5313 38.0846 72.9224 43.5012 72.9224Z" stroke="black" stroke-linecap="round" stroke-linejoin="round"/>
</svg>
